<svg width="25" height="24" viewBox="0 0 25 24" fill="none" xmlns="http://www.w3.org/2000/svg">
<g clip-path="url(#clip0_473_6292)">
<path d="M9.5 19C5.2 20.4 5.2 16.5 3.5 16M15.5 21V17.5C15.5 16.5 15.6 16.1 15 15.5C17.8 15.2 20.5 14.1 20.5 9.49995C20.4988 8.30492 20.0325 7.15726 19.2 6.29995C19.5905 5.26192 19.5545 4.11158 19.1 3.09995C19.1 3.09995 18 2.79995 15.6 4.39995C13.5672 3.87054 11.4328 3.87054 9.4 4.39995C7 2.79995 5.9 3.09995 5.9 3.09995C5.44548 4.11158 5.40953 5.26192 5.8 6.29995C4.96745 7.15726 4.50122 8.30492 4.5 9.49995C4.5 14.1 7.2 15.2 10 15.5C9.4 16.1 9.4 16.7 9.5 17.5V21" stroke="white" stroke-width="2" stroke-linecap="round" stroke-linejoin="round"/>
</g>
<defs>
<clipPath id="clip0_473_6292">
<rect width="24" height="24" fill="white" transform="translate(0.5)"/>
</clipPath>
</defs>
</svg>
