<svg width="56" height="56" viewBox="0 0 56 56" fill="none" xmlns="http://www.w3.org/2000/svg">
<g clip-path="url(#clip0_386_9340)">
<rect width="56" height="56" rx="2" fill="#4263EB"/>
<path d="M54.8906 53.6328C55.0859 53.6328 55.1836 53.7734 55.1836 54.0547C55.1836 54.3281 55.1328 54.5547 55.0312 54.7344C54.9297 54.9141 54.8125 55.0781 54.6797 55.2266C54.5469 55.375 54.3789 55.5156 54.1758 55.6484C53.6992 55.9609 53.1953 56.1172 52.6641 56.1172C52.1406 56.1172 51.7227 56.0547 51.4102 55.9297C51.1055 55.7969 50.8398 55.6016 50.6133 55.3438C50.1289 54.8047 49.8867 54.0586 49.8867 53.1055C49.8867 52.0898 50.082 50.8516 50.4727 49.3906C50.8633 47.9219 51.2383 46.668 51.5977 45.6289C51.9648 44.582 52.3398 43.5859 52.7227 42.6406L53.7773 39.957C52.6211 40.9961 51.1562 43.1797 49.3828 46.5078L46.5469 51.875C45.0312 54.7031 43.9492 56.1172 43.3008 56.1172C42.668 56.1172 42.2344 55.8438 42 55.2969C41.7891 54.7734 41.6836 53.8867 41.6836 52.6367C41.6836 51.3789 41.7812 50.1758 41.9766 49.0273C42.1797 47.8711 42.4336 46.7422 42.7383 45.6406C43.2695 43.6953 43.957 41.7656 44.8008 39.8516C43.9805 40.3125 43.0703 41.3398 42.0703 42.9336C41.3047 44.207 40.7656 45.1367 40.4531 45.7227L37.4297 51.2891C36.1719 53.5781 35.1602 54.9922 34.3945 55.5312C33.8398 55.9219 33.2422 56.1172 32.6016 56.1172C32.0547 56.1172 31.6602 55.9453 31.418 55.6016C31.3242 55.4609 31.2773 55.332 31.2773 55.2148C31.2773 55.0977 31.3125 55.0273 31.3828 55.0039C31.8672 54.8711 32.2109 54.7344 32.4141 54.5938C32.6094 54.4453 32.8047 54.2969 33 54.1484C33.1953 53.9922 33.4805 53.668 33.8555 53.1758C34.2305 52.6758 34.6367 52.0781 35.0742 51.3828C35.5117 50.6797 35.9688 49.8945 36.4453 49.0273L37.9336 46.2852C39.3086 43.6289 40.7461 41.5 42.2461 39.8984C42.7773 39.3281 43.3008 38.8867 43.8164 38.5742C44.332 38.207 44.9297 37.9609 45.6094 37.8359C45.7969 37.7969 45.9688 37.7773 46.125 37.7773C46.2891 37.7773 46.4688 37.8008 46.6641 37.8477C46.8672 37.8945 47.043 37.9688 47.1914 38.0703C47.5352 38.3047 47.6367 38.6172 47.4961 39.0078C47.4336 39.2422 47.3125 39.5938 47.1328 40.0625L46.5 41.7383C45.0234 45.8164 44.2148 49.5273 44.0742 52.8711C44.4883 52.1602 44.9062 51.3828 45.3281 50.5391L46.6523 47.9258L48.0469 45.2656C50.1953 41.2812 52.1914 39 54.0352 38.4219C54.418 38.2969 54.7383 38.2344 54.9961 38.2344C55.2539 38.2344 55.457 38.2695 55.6055 38.3398C55.7539 38.4023 55.8867 38.4844 56.0039 38.5859C56.2773 38.8359 56.3711 39.0938 56.2852 39.3594C56.1992 39.6172 56.0859 39.9492 55.9453 40.3555L54.2461 45.3125L53.6367 47.2578C52.9648 49.5078 52.5664 51.2344 52.4414 52.4375C52.3945 52.9453 52.4492 53.3438 52.6055 53.6328C52.7695 53.9141 52.9922 54.0547 53.2734 54.0547C53.5547 54.0547 53.7734 54.0352 53.9297 53.9961C54.0938 53.9492 54.2344 53.8984 54.3516 53.8438L54.6562 53.7031C54.7422 53.6562 54.8203 53.6328 54.8906 53.6328Z" fill="white"/>
</g>
<defs>
<clipPath id="clip0_386_9340">
<rect width="56" height="56" rx="2" fill="white"/>
</clipPath>
</defs>
</svg>
