<svg width="40" height="40" viewBox="0 0 40 40" fill="none" xmlns="http://www.w3.org/2000/svg">
<g clip-path="url(#clip0_467_6209)">
<rect width="40" height="40" rx="2" fill="#4263EB"/>
<path d="M38.8906 37.6328C39.0859 37.6328 39.1836 37.7734 39.1836 38.0547C39.1836 38.3281 39.1328 38.5547 39.0312 38.7344C38.9297 38.9141 38.8125 39.0781 38.6797 39.2266C38.5469 39.375 38.3789 39.5156 38.1758 39.6484C37.6992 39.9609 37.1953 40.1172 36.6641 40.1172C36.1406 40.1172 35.7227 40.0547 35.4102 39.9297C35.1055 39.7969 34.8398 39.6016 34.6133 39.3438C34.1289 38.8047 33.8867 38.0586 33.8867 37.1055C33.8867 36.0898 34.082 34.8516 34.4727 33.3906C34.8633 31.9219 35.2383 30.668 35.5977 29.6289C35.9648 28.582 36.3398 27.5859 36.7227 26.6406L37.7773 23.957C36.6211 24.9961 35.1562 27.1797 33.3828 30.5078L30.5469 35.875C29.0312 38.7031 27.9492 40.1172 27.3008 40.1172C26.668 40.1172 26.2344 39.8438 26 39.2969C25.7891 38.7734 25.6836 37.8867 25.6836 36.6367C25.6836 35.3789 25.7812 34.1758 25.9766 33.0273C26.1797 31.8711 26.4336 30.7422 26.7383 29.6406C27.2695 27.6953 27.957 25.7656 28.8008 23.8516C27.9805 24.3125 27.0703 25.3398 26.0703 26.9336C25.3047 28.207 24.7656 29.1367 24.4531 29.7227L21.4297 35.2891C20.1719 37.5781 19.1602 38.9922 18.3945 39.5312C17.8398 39.9219 17.2422 40.1172 16.6016 40.1172C16.0547 40.1172 15.6602 39.9453 15.418 39.6016C15.3242 39.4609 15.2773 39.332 15.2773 39.2148C15.2773 39.0977 15.3125 39.0273 15.3828 39.0039C15.8672 38.8711 16.2109 38.7344 16.4141 38.5938C16.6094 38.4453 16.8047 38.2969 17 38.1484C17.1953 37.9922 17.4805 37.668 17.8555 37.1758C18.2305 36.6758 18.6367 36.0781 19.0742 35.3828C19.5117 34.6797 19.9688 33.8945 20.4453 33.0273L21.9336 30.2852C23.3086 27.6289 24.7461 25.5 26.2461 23.8984C26.7773 23.3281 27.3008 22.8867 27.8164 22.5742C28.332 22.207 28.9297 21.9609 29.6094 21.8359C29.7969 21.7969 29.9688 21.7773 30.125 21.7773C30.2891 21.7773 30.4688 21.8008 30.6641 21.8477C30.8672 21.8945 31.043 21.9688 31.1914 22.0703C31.5352 22.3047 31.6367 22.6172 31.4961 23.0078C31.4336 23.2422 31.3125 23.5938 31.1328 24.0625L30.5 25.7383C29.0234 29.8164 28.2148 33.5273 28.0742 36.8711C28.4883 36.1602 28.9062 35.3828 29.3281 34.5391L30.6523 31.9258L32.0469 29.2656C34.1953 25.2812 36.1914 23 38.0352 22.4219C38.418 22.2969 38.7383 22.2344 38.9961 22.2344C39.2539 22.2344 39.457 22.2695 39.6055 22.3398C39.7539 22.4023 39.8867 22.4844 40.0039 22.5859C40.2773 22.8359 40.3711 23.0938 40.2852 23.3594C40.1992 23.6172 40.0859 23.9492 39.9453 24.3555L38.2461 29.3125L37.6367 31.2578C36.9648 33.5078 36.5664 35.2344 36.4414 36.4375C36.3945 36.9453 36.4492 37.3438 36.6055 37.6328C36.7695 37.9141 36.9922 38.0547 37.2734 38.0547C37.5547 38.0547 37.7734 38.0352 37.9297 37.9961C38.0938 37.9492 38.2344 37.8984 38.3516 37.8438L38.6562 37.7031C38.7422 37.6562 38.8203 37.6328 38.8906 37.6328Z" fill="white"/>
</g>
<defs>
<clipPath id="clip0_467_6209">
<rect width="40" height="40" rx="2" fill="white"/>
</clipPath>
</defs>
</svg>
